<svg xmlns="http://www.w3.org/2000/svg" version="1.1" xmlns:xlink="http://www.w3.org/1999/xlink" xmlns:svgjs="http://svgjs.com/svgjs" width="500" height="500" viewBox="0 0 500 500" id="QRtiger" xml:space="preserve" x="125" y="50" fill-rule="evenodd" fill="#806cc5"><svg id="SvgjsSvg1002" width="2" height="0" focusable="false" style="overflow: hidden; top: -100%; left: -100%; position: absolute; opacity: 0"><polyline id="SvgjsPolyline1003" points="0,0"></polyline><path id="SvgjsPath1004" d="M78.53658536585365 39.653292682926825C78.53658536585365 61.340734417344166 60.955734417344175 78.92158536585364 39.26829268292683 78.92158536585364S0 61.340734417344166 0 39.65329268292682S17.580850948509482 0.3849999999999909 39.26829268292683 0.3849999999999909S78.53658536585365 17.965850948509484 78.53658536585365 39.653292682926825ZM39.26829268292683 9.111287262872628C22.400379403794037 9.111287262872628 8.726287262872628 22.785379403794035 8.726287262872628 39.653292682926825S22.400379403794037 70.19529810298101 39.26829268292683 70.19529810298101S69.81029810298102 56.52120596205961 69.81029810298102 39.65329268292682S56.13620596205962 9.111287262872628 39.26829268292683 9.111287262872628Z "></path></svg><defs id="SvgjsDefs20158068"><linearGradient id="linearGradient" gradientUnits="userSpaceOnUse" x1="0" y1="0" x2="500" y2="0"><stop id="SvgjsStop20158070" stop-color="#ff0000" offset="0"></stop><stop id="SvgjsStop20158071" stop-color="#0000ff" offset="1"></stop></linearGradient></defs><rect id="background" width="500" height="500" fill="#ffffff"></rect><path id="r0C11" d="M194.48275862068965,20H211.13793103448276V36.6551724137931H194.48275862068965V20Z" fill="#000000"></path><path id="r0C13" d="M226.20689655172416,20H242.86206896551727V36.6551724137931H226.20689655172416V20Z" fill="#000000"></path><path id="r0C16" d="M273.7931034482759,20H290.44827586206895V36.6551724137931H273.7931034482759V20Z" fill="#000000"></path><path id="r0C17" d="M289.65517241379314,20H306.3103448275862V36.6551724137931H289.65517241379314V20Z" fill="#000000"></path><path id="r0C19" d="M321.3793103448276,20H338.0344827586207V36.6551724137931H321.3793103448276V20Z" fill="#000000"></path><path id="r0C20" d="M337.2413793103448,20H353.8965517241379V36.6551724137931H337.2413793103448V20Z" fill="#000000"></path><path id="r1C10" d="M178.6206896551724,35.86206896551724H195.27586206896552V52.51724137931034H178.6206896551724V35.86206896551724Z" fill="#000000"></path><path id="r1C12" d="M210.34482758620692,35.86206896551724H227.00000000000003V52.51724137931034H210.34482758620692V35.86206896551724Z" fill="#000000"></path><path id="r1C13" d="M226.20689655172416,35.86206896551724H242.86206896551727V52.51724137931034H226.20689655172416V35.86206896551724Z" fill="#000000"></path><path id="r1C17" d="M289.65517241379314,35.86206896551724H306.3103448275862V52.51724137931034H289.65517241379314V35.86206896551724Z" fill="#000000"></path><path id="r1C19" d="M321.3793103448276,35.86206896551724H338.0344827586207V52.51724137931034H321.3793103448276V35.86206896551724Z" fill="#000000"></path><path id="r2C8" d="M146.89655172413794,51.724137931034484H163.55172413793105V68.37931034482759H146.89655172413794V51.724137931034484Z" fill="#000000"></path><path id="r2C10" d="M178.6206896551724,51.724137931034484H195.27586206896552V68.37931034482759H178.6206896551724V51.724137931034484Z" fill="#000000"></path><path id="r2C12" d="M210.34482758620692,51.724137931034484H227.00000000000003V68.37931034482759H210.34482758620692V51.724137931034484Z" fill="#000000"></path><path id="r2C15" d="M257.9310344827586,51.724137931034484H274.5862068965517V68.37931034482759H257.9310344827586V51.724137931034484Z" fill="#000000"></path><path id="r2C19" d="M321.3793103448276,51.724137931034484H338.0344827586207V68.37931034482759H321.3793103448276V51.724137931034484Z" fill="#000000"></path><path id="r3C8" d="M146.89655172413794,67.58620689655173H163.55172413793105V84.24137931034483H146.89655172413794V67.58620689655173Z" fill="#000000"></path><path id="r3C12" d="M210.34482758620692,67.58620689655173H227.00000000000003V84.24137931034483H210.34482758620692V67.58620689655173Z" fill="#000000"></path><path id="r3C14" d="M242.0689655172414,67.58620689655173H258.7241379310345V84.24137931034483H242.0689655172414V67.58620689655173Z" fill="#000000"></path><path id="r3C15" d="M257.9310344827586,67.58620689655173H274.5862068965517V84.24137931034483H257.9310344827586V67.58620689655173Z" fill="#000000"></path><path id="r3C16" d="M273.7931034482759,67.58620689655173H290.44827586206895V84.24137931034483H273.7931034482759V67.58620689655173Z" fill="#000000"></path><path id="r3C17" d="M289.65517241379314,67.58620689655173H306.3103448275862V84.24137931034483H289.65517241379314V67.58620689655173Z" fill="#000000"></path><path id="r3C20" d="M337.2413793103448,67.58620689655173H353.8965517241379V84.24137931034483H337.2413793103448V67.58620689655173Z" fill="#000000"></path><path id="r4C12" d="M210.34482758620692,83.44827586206897H227.00000000000003V100.10344827586206H210.34482758620692V83.44827586206897Z" fill="#000000"></path><path id="r4C13" d="M226.20689655172416,83.44827586206897H242.86206896551727V100.10344827586206H226.20689655172416V83.44827586206897Z" fill="#000000"></path><path id="r4C16" d="M273.7931034482759,83.44827586206897H290.44827586206895V100.10344827586206H273.7931034482759V83.44827586206897Z" fill="#000000"></path><path id="r4C18" d="M305.51724137931035,83.44827586206897H322.17241379310343V100.10344827586206H305.51724137931035V83.44827586206897Z" fill="#000000"></path><path id="r4C19" d="M321.3793103448276,83.44827586206897H338.0344827586207V100.10344827586206H321.3793103448276V83.44827586206897Z" fill="#000000"></path><path id="r5C9" d="M162.75862068965517,99.3103448275862H179.41379310344828V115.9655172413793H162.75862068965517V99.3103448275862Z" fill="#000000"></path><path id="r5C11" d="M194.48275862068965,99.3103448275862H211.13793103448276V115.9655172413793H194.48275862068965V99.3103448275862Z" fill="#000000"></path><path id="r5C14" d="M242.0689655172414,99.3103448275862H258.7241379310345V115.9655172413793H242.0689655172414V99.3103448275862Z" fill="#000000"></path><path id="r5C16" d="M273.7931034482759,99.3103448275862H290.44827586206895V115.9655172413793H273.7931034482759V99.3103448275862Z" fill="#000000"></path><path id="r5C20" d="M337.2413793103448,99.3103448275862H353.8965517241379V115.9655172413793H337.2413793103448V99.3103448275862Z" fill="#000000"></path><path id="r6C8" d="M146.89655172413794,115.17241379310346H163.55172413793105V131.82758620689657H146.89655172413794V115.17241379310346Z" fill="#000000"></path><path id="r6C10" d="M178.6206896551724,115.17241379310346H195.27586206896552V131.82758620689657H178.6206896551724V115.17241379310346Z" fill="#000000"></path><path id="r6C12" d="M210.34482758620692,115.17241379310346H227.00000000000003V131.82758620689657H210.34482758620692V115.17241379310346Z" fill="#000000"></path><path id="r6C14" d="M242.0689655172414,115.17241379310346H258.7241379310345V131.82758620689657H242.0689655172414V115.17241379310346Z" fill="#000000"></path><path id="r6C16" d="M273.7931034482759,115.17241379310346H290.44827586206895V131.82758620689657H273.7931034482759V115.17241379310346Z" fill="#000000"></path><path id="r6C18" d="M305.51724137931035,115.17241379310346H322.17241379310343V131.82758620689657H305.51724137931035V115.17241379310346Z" fill="#000000"></path><path id="r6C20" d="M337.2413793103448,115.17241379310346H353.8965517241379V131.82758620689657H337.2413793103448V115.17241379310346Z" fill="#000000"></path><path id="r7C10" d="M178.6206896551724,131.0344827586207H195.27586206896552V147.6896551724138H178.6206896551724V131.0344827586207Z" fill="#000000"></path><path id="r7C11" d="M194.48275862068965,131.0344827586207H211.13793103448276V147.6896551724138H194.48275862068965V131.0344827586207Z" fill="#000000"></path><path id="r7C12" d="M210.34482758620692,131.0344827586207H227.00000000000003V147.6896551724138H210.34482758620692V131.0344827586207Z" fill="#000000"></path><path id="r7C13" d="M226.20689655172416,131.0344827586207H242.86206896551727V147.6896551724138H226.20689655172416V131.0344827586207Z" fill="#000000"></path><path id="r7C14" d="M242.0689655172414,131.0344827586207H258.7241379310345V147.6896551724138H242.0689655172414V131.0344827586207Z" fill="#000000"></path><path id="r7C16" d="M273.7931034482759,131.0344827586207H290.44827586206895V147.6896551724138H273.7931034482759V131.0344827586207Z" fill="#000000"></path><path id="r7C17" d="M289.65517241379314,131.0344827586207H306.3103448275862V147.6896551724138H289.65517241379314V131.0344827586207Z" fill="#000000"></path><path id="r7C18" d="M305.51724137931035,131.0344827586207H322.17241379310343V147.6896551724138H305.51724137931035V131.0344827586207Z" fill="#000000"></path><path id="r7C19" d="M321.3793103448276,131.0344827586207H338.0344827586207V147.6896551724138H321.3793103448276V131.0344827586207Z" fill="#000000"></path><path id="r7C20" d="M337.2413793103448,131.0344827586207H353.8965517241379V147.6896551724138H337.2413793103448V131.0344827586207Z" fill="#000000"></path><path id="r8C3" d="M67.58620689655173,146.89655172413794H84.24137931034483V163.55172413793105H67.58620689655173V146.89655172413794Z" fill="#000000"></path><path id="r8C4" d="M83.44827586206897,146.89655172413794H100.10344827586206V163.55172413793105H83.44827586206897V146.89655172413794Z" fill="#000000"></path><path id="r8C6" d="M115.17241379310346,146.89655172413794H131.82758620689657V163.55172413793105H115.17241379310346V146.89655172413794Z" fill="#000000"></path><path id="r8C7" d="M131.0344827586207,146.89655172413794H147.6896551724138V163.55172413793105H131.0344827586207V146.89655172413794Z" fill="#000000"></path><path id="r8C9" d="M162.75862068965517,146.89655172413794H179.41379310344828V163.55172413793105H162.75862068965517V146.89655172413794Z" fill="#000000"></path><path id="r8C10" d="M178.6206896551724,146.89655172413794H195.27586206896552V163.55172413793105H178.6206896551724V146.89655172413794Z" fill="#000000"></path><path id="r8C11" d="M194.48275862068965,146.89655172413794H211.13793103448276V163.55172413793105H194.48275862068965V146.89655172413794Z" fill="#000000"></path><path id="r8C12" d="M210.34482758620692,146.89655172413794H227.00000000000003V163.55172413793105H210.34482758620692V146.89655172413794Z" fill="#000000"></path><path id="r8C14" d="M242.0689655172414,146.89655172413794H258.7241379310345V163.55172413793105H242.0689655172414V146.89655172413794Z" fill="#000000"></path><path id="r8C16" d="M273.7931034482759,146.89655172413794H290.44827586206895V163.55172413793105H273.7931034482759V146.89655172413794Z" fill="#000000"></path><path id="r8C25" d="M416.55172413793105,146.89655172413794H433.2068965517241V163.55172413793105H416.55172413793105V146.89655172413794Z" fill="#000000"></path><path id="r8C26" d="M432.4137931034483,146.89655172413794H449.0689655172414V163.55172413793105H432.4137931034483V146.89655172413794Z" fill="#000000"></path><path id="r9C0" d="M20,162.75862068965517H36.6551724137931V179.41379310344828H20V162.75862068965517Z" fill="#000000"></path><path id="r9C1" d="M35.86206896551724,162.75862068965517H52.51724137931034V179.41379310344828H35.86206896551724V162.75862068965517Z" fill="#000000"></path><path id="r9C2" d="M51.724137931034484,162.75862068965517H68.37931034482759V179.41379310344828H51.724137931034484V162.75862068965517Z" fill="#000000"></path><path id="r9C5" d="M99.3103448275862,162.75862068965517H115.9655172413793V179.41379310344828H99.3103448275862V162.75862068965517Z" fill="#000000"></path><path id="r9C9" d="M162.75862068965517,162.75862068965517H179.41379310344828V179.41379310344828H162.75862068965517V162.75862068965517Z" fill="#000000"></path><path id="r9C11" d="M194.48275862068965,162.75862068965517H211.13793103448276V179.41379310344828H194.48275862068965V162.75862068965517Z" fill="#000000"></path><path id="r9C13" d="M226.20689655172416,162.75862068965517H242.86206896551727V179.41379310344828H226.20689655172416V162.75862068965517Z" fill="#000000"></path><path id="r9C14" d="M242.0689655172414,162.75862068965517H258.7241379310345V179.41379310344828H242.0689655172414V162.75862068965517Z" fill="#000000"></path><path id="r9C15" d="M257.9310344827586,162.75862068965517H274.5862068965517V179.41379310344828H257.9310344827586V162.75862068965517Z" fill="#000000"></path><path id="r9C16" d="M273.7931034482759,162.75862068965517H290.44827586206895V179.41379310344828H273.7931034482759V162.75862068965517Z" fill="#000000"></path><path id="r9C18" d="M305.51724137931035,162.75862068965517H322.17241379310343V179.41379310344828H305.51724137931035V162.75862068965517Z" fill="#000000"></path><path id="r9C23" d="M384.82758620689657,162.75862068965517H401.48275862068965V179.41379310344828H384.82758620689657V162.75862068965517Z" fill="#000000"></path><path id="r9C24" d="M400.68965517241384,162.75862068965517H417.3448275862069V179.41379310344828H400.68965517241384V162.75862068965517Z" fill="#000000"></path><path id="r9C25" d="M416.55172413793105,162.75862068965517H433.2068965517241V179.41379310344828H416.55172413793105V162.75862068965517Z" fill="#000000"></path><path id="r9C27" d="M448.2758620689655,162.75862068965517H464.9310344827586V179.41379310344828H448.2758620689655V162.75862068965517Z" fill="#000000"></path><path id="r10C0" d="M20,178.6206896551724H36.6551724137931V195.27586206896552H20V178.6206896551724Z" fill="#000000"></path><path id="r10C3" d="M67.58620689655173,178.6206896551724H84.24137931034483V195.27586206896552H67.58620689655173V178.6206896551724Z" fill="#000000"></path><path id="r10C4" d="M83.44827586206897,178.6206896551724H100.10344827586206V195.27586206896552H83.44827586206897V178.6206896551724Z" fill="#000000"></path><path id="r10C5" d="M99.3103448275862,178.6206896551724H115.9655172413793V195.27586206896552H99.3103448275862V178.6206896551724Z" fill="#000000"></path><path id="r10C6" d="M115.17241379310346,178.6206896551724H131.82758620689657V195.27586206896552H115.17241379310346V178.6206896551724Z" fill="#000000"></path><path id="r10C9" d="M162.75862068965517,178.6206896551724H179.41379310344828V195.27586206896552H162.75862068965517V178.6206896551724Z" fill="#000000"></path><path id="r10C10" d="M178.6206896551724,178.6206896551724H195.27586206896552V195.27586206896552H178.6206896551724V178.6206896551724Z" fill="#000000"></path><path id="r10C13" d="M226.20689655172416,178.6206896551724H242.86206896551727V195.27586206896552H226.20689655172416V178.6206896551724Z" fill="#000000"></path><path id="r10C15" d="M257.9310344827586,178.6206896551724H274.5862068965517V195.27586206896552H257.9310344827586V178.6206896551724Z" fill="#000000"></path><path id="r10C17" d="M289.65517241379314,178.6206896551724H306.3103448275862V195.27586206896552H289.65517241379314V178.6206896551724Z" fill="#000000"></path><path id="r10C19" d="M321.3793103448276,178.6206896551724H338.0344827586207V195.27586206896552H321.3793103448276V178.6206896551724Z" fill="#000000"></path><path id="r10C20" d="M337.2413793103448,178.6206896551724H353.8965517241379V195.27586206896552H337.2413793103448V178.6206896551724Z" fill="#000000"></path><path id="r10C22" d="M368.9655172413793,178.6206896551724H385.6206896551724V195.27586206896552H368.9655172413793V178.6206896551724Z" fill="#000000"></path><path id="r10C24" d="M400.68965517241384,178.6206896551724H417.3448275862069V195.27586206896552H400.68965517241384V178.6206896551724Z" fill="#000000"></path><path id="r10C25" d="M416.55172413793105,178.6206896551724H433.2068965517241V195.27586206896552H416.55172413793105V178.6206896551724Z" fill="#000000"></path><path id="r11C0" d="M20,194.48275862068965H36.6551724137931V211.13793103448276H20V194.48275862068965Z" fill="#000000"></path><path id="r11C3" d="M67.58620689655173,194.48275862068965H84.24137931034483V211.13793103448276H67.58620689655173V194.48275862068965Z" fill="#000000"></path><path id="r11C8" d="M146.89655172413794,194.48275862068965H163.55172413793105V211.13793103448276H146.89655172413794V194.48275862068965Z" fill="#000000"></path><path id="r11C9" d="M162.75862068965517,194.48275862068965H179.41379310344828V211.13793103448276H162.75862068965517V194.48275862068965Z" fill="#000000"></path><path id="r11C11" d="M194.48275862068965,194.48275862068965H211.13793103448276V211.13793103448276H194.48275862068965V194.48275862068965Z" fill="#000000"></path><path id="r11C13" d="M226.20689655172416,194.48275862068965H242.86206896551727V211.13793103448276H226.20689655172416V194.48275862068965Z" fill="#000000"></path><path id="r11C14" d="M242.0689655172414,194.48275862068965H258.7241379310345V211.13793103448276H242.0689655172414V194.48275862068965Z" fill="#000000"></path><path id="r11C15" d="M257.9310344827586,194.48275862068965H274.5862068965517V211.13793103448276H257.9310344827586V194.48275862068965Z" fill="#000000"></path><path id="r11C18" d="M305.51724137931035,194.48275862068965H322.17241379310343V211.13793103448276H305.51724137931035V194.48275862068965Z" fill="#000000"></path><path id="r11C19" d="M321.3793103448276,194.48275862068965H338.0344827586207V211.13793103448276H321.3793103448276V194.48275862068965Z" fill="#000000"></path><path id="r11C20" d="M337.2413793103448,194.48275862068965H353.8965517241379V211.13793103448276H337.2413793103448V194.48275862068965Z" fill="#000000"></path><path id="r11C21" d="M353.1034482758621,194.48275862068965H369.7586206896552V211.13793103448276H353.1034482758621V194.48275862068965Z" fill="#000000"></path><path id="r11C24" d="M400.68965517241384,194.48275862068965H417.3448275862069V211.13793103448276H400.68965517241384V194.48275862068965Z" fill="#000000"></path><path id="r11C28" d="M464.1379310344828,194.48275862068965H480.7931034482759V211.13793103448276H464.1379310344828V194.48275862068965Z" fill="#000000"></path><path id="r12C1" d="M35.86206896551724,210.34482758620692H52.51724137931034V227.00000000000003H35.86206896551724V210.34482758620692Z" fill="#000000"></path><path id="r12C6" d="M115.17241379310346,210.34482758620692H131.82758620689657V227.00000000000003H115.17241379310346V210.34482758620692Z" fill="#000000"></path><path id="r12C8" d="M146.89655172413794,210.34482758620692H163.55172413793105V227.00000000000003H146.89655172413794V210.34482758620692Z" fill="#000000"></path><path id="r12C12" d="M210.34482758620692,210.34482758620692H227.00000000000003V227.00000000000003H210.34482758620692V210.34482758620692Z" fill="#000000"></path><path id="r12C13" d="M226.20689655172416,210.34482758620692H242.86206896551727V227.00000000000003H226.20689655172416V210.34482758620692Z" fill="#000000"></path><path id="r12C14" d="M242.0689655172414,210.34482758620692H258.7241379310345V227.00000000000003H242.0689655172414V210.34482758620692Z" fill="#000000"></path><path id="r12C15" d="M257.9310344827586,210.34482758620692H274.5862068965517V227.00000000000003H257.9310344827586V210.34482758620692Z" fill="#000000"></path><path id="r12C16" d="M273.7931034482759,210.34482758620692H290.44827586206895V227.00000000000003H273.7931034482759V210.34482758620692Z" fill="#000000"></path><path id="r12C18" d="M305.51724137931035,210.34482758620692H322.17241379310343V227.00000000000003H305.51724137931035V210.34482758620692Z" fill="#000000"></path><path id="r12C21" d="M353.1034482758621,210.34482758620692H369.7586206896552V227.00000000000003H353.1034482758621V210.34482758620692Z" fill="#000000"></path><path id="r12C22" d="M368.9655172413793,210.34482758620692H385.6206896551724V227.00000000000003H368.9655172413793V210.34482758620692Z" fill="#000000"></path><path id="r12C23" d="M384.82758620689657,210.34482758620692H401.48275862068965V227.00000000000003H384.82758620689657V210.34482758620692Z" fill="#000000"></path><path id="r12C25" d="M416.55172413793105,210.34482758620692H433.2068965517241V227.00000000000003H416.55172413793105V210.34482758620692Z" fill="#000000"></path><path id="r12C27" d="M448.2758620689655,210.34482758620692H464.9310344827586V227.00000000000003H448.2758620689655V210.34482758620692Z" fill="#000000"></path><path id="r13C0" d="M20,226.20689655172416H36.6551724137931V242.86206896551727H20V226.20689655172416Z" fill="#000000"></path><path id="r13C2" d="M51.724137931034484,226.20689655172416H68.37931034482759V242.86206896551727H51.724137931034484V226.20689655172416Z" fill="#000000"></path><path id="r13C7" d="M131.0344827586207,226.20689655172416H147.6896551724138V242.86206896551727H131.0344827586207V226.20689655172416Z" fill="#000000"></path><path id="r13C9" d="M162.75862068965517,226.20689655172416H179.41379310344828V242.86206896551727H162.75862068965517V226.20689655172416Z" fill="#000000"></path><path id="r13C11" d="M194.48275862068965,226.20689655172416H211.13793103448276V242.86206896551727H194.48275862068965V226.20689655172416Z" fill="#000000"></path><path id="r13C12" d="M210.34482758620692,226.20689655172416H227.00000000000003V242.86206896551727H210.34482758620692V226.20689655172416Z" fill="#000000"></path><path id="r13C18" d="M305.51724137931035,226.20689655172416H322.17241379310343V242.86206896551727H305.51724137931035V226.20689655172416Z" fill="#000000"></path><path id="r13C22" d="M368.9655172413793,226.20689655172416H385.6206896551724V242.86206896551727H368.9655172413793V226.20689655172416Z" fill="#000000"></path><path id="r13C24" d="M400.68965517241384,226.20689655172416H417.3448275862069V242.86206896551727H400.68965517241384V226.20689655172416Z" fill="#000000"></path><path id="r13C26" d="M432.4137931034483,226.20689655172416H449.0689655172414V242.86206896551727H432.4137931034483V226.20689655172416Z" fill="#000000"></path><path id="r13C28" d="M464.1379310344828,226.20689655172416H480.7931034482759V242.86206896551727H464.1379310344828V226.20689655172416Z" fill="#000000"></path><path id="r14C0" d="M20,242.0689655172414H36.6551724137931V258.7241379310345H20V242.0689655172414Z" fill="#000000"></path><path id="r14C2" d="M51.724137931034484,242.0689655172414H68.37931034482759V258.7241379310345H51.724137931034484V242.0689655172414Z" fill="#000000"></path><path id="r14C4" d="M83.44827586206897,242.0689655172414H100.10344827586206V258.7241379310345H83.44827586206897V242.0689655172414Z" fill="#000000"></path><path id="r14C5" d="M99.3103448275862,242.0689655172414H115.9655172413793V258.7241379310345H99.3103448275862V242.0689655172414Z" fill="#000000"></path><path id="r14C6" d="M115.17241379310346,242.0689655172414H131.82758620689657V258.7241379310345H115.17241379310346V242.0689655172414Z" fill="#000000"></path><path id="r14C9" d="M162.75862068965517,242.0689655172414H179.41379310344828V258.7241379310345H162.75862068965517V242.0689655172414Z" fill="#000000"></path><path id="r14C15" d="M257.9310344827586,242.0689655172414H274.5862068965517V258.7241379310345H257.9310344827586V242.0689655172414Z" fill="#000000"></path><path id="r14C17" d="M289.65517241379314,242.0689655172414H306.3103448275862V258.7241379310345H289.65517241379314V242.0689655172414Z" fill="#000000"></path><path id="r14C18" d="M305.51724137931035,242.0689655172414H322.17241379310343V258.7241379310345H305.51724137931035V242.0689655172414Z" fill="#000000"></path><path id="r14C19" d="M321.3793103448276,242.0689655172414H338.0344827586207V258.7241379310345H321.3793103448276V242.0689655172414Z" fill="#000000"></path><path id="r14C22" d="M368.9655172413793,242.0689655172414H385.6206896551724V258.7241379310345H368.9655172413793V242.0689655172414Z" fill="#000000"></path><path id="r14C25" d="M416.55172413793105,242.0689655172414H433.2068965517241V258.7241379310345H416.55172413793105V242.0689655172414Z" fill="#000000"></path><path id="r14C28" d="M464.1379310344828,242.0689655172414H480.7931034482759V258.7241379310345H464.1379310344828V242.0689655172414Z" fill="#000000"></path><path id="r15C0" d="M20,257.9310344827586H36.6551724137931V274.5862068965517H20V257.9310344827586Z" fill="#000000"></path><path id="r15C3" d="M67.58620689655173,257.9310344827586H84.24137931034483V274.5862068965517H67.58620689655173V257.9310344827586Z" fill="#000000"></path><path id="r15C12" d="M210.34482758620692,257.9310344827586H227.00000000000003V274.5862068965517H210.34482758620692V257.9310344827586Z" fill="#000000"></path><path id="r15C13" d="M226.20689655172416,257.9310344827586H242.86206896551727V274.5862068965517H226.20689655172416V257.9310344827586Z" fill="#000000"></path><path id="r15C17" d="M289.65517241379314,257.9310344827586H306.3103448275862V274.5862068965517H289.65517241379314V257.9310344827586Z" fill="#000000"></path><path id="r15C22" d="M368.9655172413793,257.9310344827586H385.6206896551724V274.5862068965517H368.9655172413793V257.9310344827586Z" fill="#000000"></path><path id="r15C25" d="M416.55172413793105,257.9310344827586H433.2068965517241V274.5862068965517H416.55172413793105V257.9310344827586Z" fill="#000000"></path><path id="r15C26" d="M432.4137931034483,257.9310344827586H449.0689655172414V274.5862068965517H432.4137931034483V257.9310344827586Z" fill="#000000"></path><path id="r15C27" d="M448.2758620689655,257.9310344827586H464.9310344827586V274.5862068965517H448.2758620689655V257.9310344827586Z" fill="#000000"></path><path id="r16C1" d="M35.86206896551724,273.7931034482759H52.51724137931034V290.44827586206895H35.86206896551724V273.7931034482759Z" fill="#000000"></path><path id="r16C5" d="M99.3103448275862,273.7931034482759H115.9655172413793V290.44827586206895H99.3103448275862V273.7931034482759Z" fill="#000000"></path><path id="r16C6" d="M115.17241379310346,273.7931034482759H131.82758620689657V290.44827586206895H115.17241379310346V273.7931034482759Z" fill="#000000"></path><path id="r16C9" d="M162.75862068965517,273.7931034482759H179.41379310344828V290.44827586206895H162.75862068965517V273.7931034482759Z" fill="#000000"></path><path id="r16C11" d="M194.48275862068965,273.7931034482759H211.13793103448276V290.44827586206895H194.48275862068965V273.7931034482759Z" fill="#000000"></path><path id="r16C19" d="M321.3793103448276,273.7931034482759H338.0344827586207V290.44827586206895H321.3793103448276V273.7931034482759Z" fill="#000000"></path><path id="r16C20" d="M337.2413793103448,273.7931034482759H353.8965517241379V290.44827586206895H337.2413793103448V273.7931034482759Z" fill="#000000"></path><path id="r16C25" d="M416.55172413793105,273.7931034482759H433.2068965517241V290.44827586206895H416.55172413793105V273.7931034482759Z" fill="#000000"></path><path id="r17C0" d="M20,289.65517241379314H36.6551724137931V306.3103448275862H20V289.65517241379314Z" fill="#000000"></path><path id="r17C1" d="M35.86206896551724,289.65517241379314H52.51724137931034V306.3103448275862H35.86206896551724V289.65517241379314Z" fill="#000000"></path><path id="r17C2" d="M51.724137931034484,289.65517241379314H68.37931034482759V306.3103448275862H51.724137931034484V289.65517241379314Z" fill="#000000"></path><path id="r17C5" d="M99.3103448275862,289.65517241379314H115.9655172413793V306.3103448275862H99.3103448275862V289.65517241379314Z" fill="#000000"></path><path id="r17C7" d="M131.0344827586207,289.65517241379314H147.6896551724138V306.3103448275862H131.0344827586207V289.65517241379314Z" fill="#000000"></path><path id="r17C8" d="M146.89655172413794,289.65517241379314H163.55172413793105V306.3103448275862H146.89655172413794V289.65517241379314Z" fill="#000000"></path><path id="r17C9" d="M162.75862068965517,289.65517241379314H179.41379310344828V306.3103448275862H162.75862068965517V289.65517241379314Z" fill="#000000"></path><path id="r17C10" d="M178.6206896551724,289.65517241379314H195.27586206896552V306.3103448275862H178.6206896551724V289.65517241379314Z" fill="#000000"></path><path id="r17C12" d="M210.34482758620692,289.65517241379314H227.00000000000003V306.3103448275862H210.34482758620692V289.65517241379314Z" fill="#000000"></path><path id="r17C14" d="M242.0689655172414,289.65517241379314H258.7241379310345V306.3103448275862H242.0689655172414V289.65517241379314Z" fill="#000000"></path><path id="r17C15" d="M257.9310344827586,289.65517241379314H274.5862068965517V306.3103448275862H257.9310344827586V289.65517241379314Z" fill="#000000"></path><path id="r17C18" d="M305.51724137931035,289.65517241379314H322.17241379310343V306.3103448275862H305.51724137931035V289.65517241379314Z" fill="#000000"></path><path id="r17C24" d="M400.68965517241384,289.65517241379314H417.3448275862069V306.3103448275862H400.68965517241384V289.65517241379314Z" fill="#000000"></path><path id="r17C25" d="M416.55172413793105,289.65517241379314H433.2068965517241V306.3103448275862H416.55172413793105V289.65517241379314Z" fill="#000000"></path><path id="r17C26" d="M432.4137931034483,289.65517241379314H449.0689655172414V306.3103448275862H432.4137931034483V289.65517241379314Z" fill="#000000"></path><path id="r18C0" d="M20,305.51724137931035H36.6551724137931V322.17241379310343H20V305.51724137931035Z" fill="#000000"></path><path id="r18C1" d="M35.86206896551724,305.51724137931035H52.51724137931034V322.17241379310343H35.86206896551724V305.51724137931035Z" fill="#000000"></path><path id="r18C3" d="M67.58620689655173,305.51724137931035H84.24137931034483V322.17241379310343H67.58620689655173V305.51724137931035Z" fill="#000000"></path><path id="r18C4" d="M83.44827586206897,305.51724137931035H100.10344827586206V322.17241379310343H83.44827586206897V305.51724137931035Z" fill="#000000"></path><path id="r18C5" d="M99.3103448275862,305.51724137931035H115.9655172413793V322.17241379310343H99.3103448275862V305.51724137931035Z" fill="#000000"></path><path id="r18C6" d="M115.17241379310346,305.51724137931035H131.82758620689657V322.17241379310343H115.17241379310346V305.51724137931035Z" fill="#000000"></path><path id="r18C7" d="M131.0344827586207,305.51724137931035H147.6896551724138V322.17241379310343H131.0344827586207V305.51724137931035Z" fill="#000000"></path><path id="r18C8" d="M146.89655172413794,305.51724137931035H163.55172413793105V322.17241379310343H146.89655172413794V305.51724137931035Z" fill="#000000"></path><path id="r18C9" d="M162.75862068965517,305.51724137931035H179.41379310344828V322.17241379310343H162.75862068965517V305.51724137931035Z" fill="#000000"></path><path id="r18C10" d="M178.6206896551724,305.51724137931035H195.27586206896552V322.17241379310343H178.6206896551724V305.51724137931035Z" fill="#000000"></path><path id="r18C11" d="M194.48275862068965,305.51724137931035H211.13793103448276V322.17241379310343H194.48275862068965V305.51724137931035Z" fill="#000000"></path><path id="r18C12" d="M210.34482758620692,305.51724137931035H227.00000000000003V322.17241379310343H210.34482758620692V305.51724137931035Z" fill="#000000"></path><path id="r18C16" d="M273.7931034482759,305.51724137931035H290.44827586206895V322.17241379310343H273.7931034482759V305.51724137931035Z" fill="#000000"></path><path id="r18C17" d="M289.65517241379314,305.51724137931035H306.3103448275862V322.17241379310343H289.65517241379314V305.51724137931035Z" fill="#000000"></path><path id="r18C19" d="M321.3793103448276,305.51724137931035H338.0344827586207V322.17241379310343H321.3793103448276V305.51724137931035Z" fill="#000000"></path><path id="r18C23" d="M384.82758620689657,305.51724137931035H401.48275862068965V322.17241379310343H384.82758620689657V305.51724137931035Z" fill="#000000"></path><path id="r18C24" d="M400.68965517241384,305.51724137931035H417.3448275862069V322.17241379310343H400.68965517241384V305.51724137931035Z" fill="#000000"></path><path id="r18C25" d="M416.55172413793105,305.51724137931035H433.2068965517241V322.17241379310343H416.55172413793105V305.51724137931035Z" fill="#000000"></path><path id="r18C28" d="M464.1379310344828,305.51724137931035H480.7931034482759V322.17241379310343H464.1379310344828V305.51724137931035Z" fill="#000000"></path><path id="r19C0" d="M20,321.3793103448276H36.6551724137931V338.0344827586207H20V321.3793103448276Z" fill="#000000"></path><path id="r19C1" d="M35.86206896551724,321.3793103448276H52.51724137931034V338.0344827586207H35.86206896551724V321.3793103448276Z" fill="#000000"></path><path id="r19C4" d="M83.44827586206897,321.3793103448276H100.10344827586206V338.0344827586207H83.44827586206897V321.3793103448276Z" fill="#000000"></path><path id="r19C5" d="M99.3103448275862,321.3793103448276H115.9655172413793V338.0344827586207H99.3103448275862V321.3793103448276Z" fill="#000000"></path><path id="r19C7" d="M131.0344827586207,321.3793103448276H147.6896551724138V338.0344827586207H131.0344827586207V321.3793103448276Z" fill="#000000"></path><path id="r19C9" d="M162.75862068965517,321.3793103448276H179.41379310344828V338.0344827586207H162.75862068965517V321.3793103448276Z" fill="#000000"></path><path id="r19C11" d="M194.48275862068965,321.3793103448276H211.13793103448276V338.0344827586207H194.48275862068965V321.3793103448276Z" fill="#000000"></path><path id="r19C13" d="M226.20689655172416,321.3793103448276H242.86206896551727V338.0344827586207H226.20689655172416V321.3793103448276Z" fill="#000000"></path><path id="r19C17" d="M289.65517241379314,321.3793103448276H306.3103448275862V338.0344827586207H289.65517241379314V321.3793103448276Z" fill="#000000"></path><path id="r19C21" d="M353.1034482758621,321.3793103448276H369.7586206896552V338.0344827586207H353.1034482758621V321.3793103448276Z" fill="#000000"></path><path id="r19C22" d="M368.9655172413793,321.3793103448276H385.6206896551724V338.0344827586207H368.9655172413793V321.3793103448276Z" fill="#000000"></path><path id="r19C23" d="M384.82758620689657,321.3793103448276H401.48275862068965V338.0344827586207H384.82758620689657V321.3793103448276Z" fill="#000000"></path><path id="r19C24" d="M400.68965517241384,321.3793103448276H417.3448275862069V338.0344827586207H400.68965517241384V321.3793103448276Z" fill="#000000"></path><path id="r19C26" d="M432.4137931034483,321.3793103448276H449.0689655172414V338.0344827586207H432.4137931034483V321.3793103448276Z" fill="#000000"></path><path id="r19C27" d="M448.2758620689655,321.3793103448276H464.9310344827586V338.0344827586207H448.2758620689655V321.3793103448276Z" fill="#000000"></path><path id="r20C0" d="M20,337.2413793103448H36.6551724137931V353.8965517241379H20V337.2413793103448Z" fill="#000000"></path><path id="r20C1" d="M35.86206896551724,337.2413793103448H52.51724137931034V353.8965517241379H35.86206896551724V337.2413793103448Z" fill="#000000"></path><path id="r20C3" d="M67.58620689655173,337.2413793103448H84.24137931034483V353.8965517241379H67.58620689655173V337.2413793103448Z" fill="#000000"></path><path id="r20C5" d="M99.3103448275862,337.2413793103448H115.9655172413793V353.8965517241379H99.3103448275862V337.2413793103448Z" fill="#000000"></path><path id="r20C6" d="M115.17241379310346,337.2413793103448H131.82758620689657V353.8965517241379H115.17241379310346V337.2413793103448Z" fill="#000000"></path><path id="r20C7" d="M131.0344827586207,337.2413793103448H147.6896551724138V353.8965517241379H131.0344827586207V337.2413793103448Z" fill="#000000"></path><path id="r20C8" d="M146.89655172413794,337.2413793103448H163.55172413793105V353.8965517241379H146.89655172413794V337.2413793103448Z" fill="#000000"></path><path id="r20C9" d="M162.75862068965517,337.2413793103448H179.41379310344828V353.8965517241379H162.75862068965517V337.2413793103448Z" fill="#000000"></path><path id="r20C11" d="M194.48275862068965,337.2413793103448H211.13793103448276V353.8965517241379H194.48275862068965V337.2413793103448Z" fill="#000000"></path><path id="r20C13" d="M226.20689655172416,337.2413793103448H242.86206896551727V353.8965517241379H226.20689655172416V337.2413793103448Z" fill="#000000"></path><path id="r20C14" d="M242.0689655172414,337.2413793103448H258.7241379310345V353.8965517241379H242.0689655172414V337.2413793103448Z" fill="#000000"></path><path id="r20C15" d="M257.9310344827586,337.2413793103448H274.5862068965517V353.8965517241379H257.9310344827586V337.2413793103448Z" fill="#000000"></path><path id="r20C16" d="M273.7931034482759,337.2413793103448H290.44827586206895V353.8965517241379H273.7931034482759V337.2413793103448Z" fill="#000000"></path><path id="r20C17" d="M289.65517241379314,337.2413793103448H306.3103448275862V353.8965517241379H289.65517241379314V337.2413793103448Z" fill="#000000"></path><path id="r20C20" d="M337.2413793103448,337.2413793103448H353.8965517241379V353.8965517241379H337.2413793103448V337.2413793103448Z" fill="#000000"></path><path id="r20C21" d="M353.1034482758621,337.2413793103448H369.7586206896552V353.8965517241379H353.1034482758621V337.2413793103448Z" fill="#000000"></path><path id="r20C22" d="M368.9655172413793,337.2413793103448H385.6206896551724V353.8965517241379H368.9655172413793V337.2413793103448Z" fill="#000000"></path><path id="r20C23" d="M384.82758620689657,337.2413793103448H401.48275862068965V353.8965517241379H384.82758620689657V337.2413793103448Z" fill="#000000"></path><path id="r20C24" d="M400.68965517241384,337.2413793103448H417.3448275862069V353.8965517241379H400.68965517241384V337.2413793103448Z" fill="#000000"></path><path id="r20C26" d="M432.4137931034483,337.2413793103448H449.0689655172414V353.8965517241379H432.4137931034483V337.2413793103448Z" fill="#000000"></path><path id="r20C28" d="M464.1379310344828,337.2413793103448H480.7931034482759V353.8965517241379H464.1379310344828V337.2413793103448Z" fill="#000000"></path><path id="r21C8" d="M146.89655172413794,353.1034482758621H163.55172413793105V369.7586206896552H146.89655172413794V353.1034482758621Z" fill="#000000"></path><path id="r21C9" d="M162.75862068965517,353.1034482758621H179.41379310344828V369.7586206896552H162.75862068965517V353.1034482758621Z" fill="#000000"></path><path id="r21C10" d="M178.6206896551724,353.1034482758621H195.27586206896552V369.7586206896552H178.6206896551724V353.1034482758621Z" fill="#000000"></path><path id="r21C13" d="M226.20689655172416,353.1034482758621H242.86206896551727V369.7586206896552H226.20689655172416V353.1034482758621Z" fill="#000000"></path><path id="r21C14" d="M242.0689655172414,353.1034482758621H258.7241379310345V369.7586206896552H242.0689655172414V353.1034482758621Z" fill="#000000"></path><path id="r21C17" d="M289.65517241379314,353.1034482758621H306.3103448275862V369.7586206896552H289.65517241379314V353.1034482758621Z" fill="#000000"></path><path id="r21C18" d="M305.51724137931035,353.1034482758621H322.17241379310343V369.7586206896552H305.51724137931035V353.1034482758621Z" fill="#000000"></path><path id="r21C20" d="M337.2413793103448,353.1034482758621H353.8965517241379V369.7586206896552H337.2413793103448V353.1034482758621Z" fill="#000000"></path><path id="r21C24" d="M400.68965517241384,353.1034482758621H417.3448275862069V369.7586206896552H400.68965517241384V353.1034482758621Z" fill="#000000"></path><path id="r21C25" d="M416.55172413793105,353.1034482758621H433.2068965517241V369.7586206896552H416.55172413793105V353.1034482758621Z" fill="#000000"></path><path id="r21C26" d="M432.4137931034483,353.1034482758621H449.0689655172414V369.7586206896552H432.4137931034483V353.1034482758621Z" fill="#000000"></path><path id="r22C8" d="M146.89655172413794,368.9655172413793H163.55172413793105V385.6206896551724H146.89655172413794V368.9655172413793Z" fill="#000000"></path><path id="r22C10" d="M178.6206896551724,368.9655172413793H195.27586206896552V385.6206896551724H178.6206896551724V368.9655172413793Z" fill="#000000"></path><path id="r22C12" d="M210.34482758620692,368.9655172413793H227.00000000000003V385.6206896551724H210.34482758620692V368.9655172413793Z" fill="#000000"></path><path id="r22C13" d="M226.20689655172416,368.9655172413793H242.86206896551727V385.6206896551724H226.20689655172416V368.9655172413793Z" fill="#000000"></path><path id="r22C14" d="M242.0689655172414,368.9655172413793H258.7241379310345V385.6206896551724H242.0689655172414V368.9655172413793Z" fill="#000000"></path><path id="r22C15" d="M257.9310344827586,368.9655172413793H274.5862068965517V385.6206896551724H257.9310344827586V368.9655172413793Z" fill="#000000"></path><path id="r22C16" d="M273.7931034482759,368.9655172413793H290.44827586206895V385.6206896551724H273.7931034482759V368.9655172413793Z" fill="#000000"></path><path id="r22C19" d="M321.3793103448276,368.9655172413793H338.0344827586207V385.6206896551724H321.3793103448276V368.9655172413793Z" fill="#000000"></path><path id="r22C20" d="M337.2413793103448,368.9655172413793H353.8965517241379V385.6206896551724H337.2413793103448V368.9655172413793Z" fill="#000000"></path><path id="r22C22" d="M368.9655172413793,368.9655172413793H385.6206896551724V385.6206896551724H368.9655172413793V368.9655172413793Z" fill="#000000"></path><path id="r22C24" d="M400.68965517241384,368.9655172413793H417.3448275862069V385.6206896551724H400.68965517241384V368.9655172413793Z" fill="#000000"></path><path id="r22C26" d="M432.4137931034483,368.9655172413793H449.0689655172414V385.6206896551724H432.4137931034483V368.9655172413793Z" fill="#000000"></path><path id="r23C9" d="M162.75862068965517,384.82758620689657H179.41379310344828V401.48275862068965H162.75862068965517V384.82758620689657Z" fill="#000000"></path><path id="r23C13" d="M226.20689655172416,384.82758620689657H242.86206896551727V401.48275862068965H226.20689655172416V384.82758620689657Z" fill="#000000"></path><path id="r23C14" d="M242.0689655172414,384.82758620689657H258.7241379310345V401.48275862068965H242.0689655172414V384.82758620689657Z" fill="#000000"></path><path id="r23C16" d="M273.7931034482759,384.82758620689657H290.44827586206895V401.48275862068965H273.7931034482759V384.82758620689657Z" fill="#000000"></path><path id="r23C19" d="M321.3793103448276,384.82758620689657H338.0344827586207V401.48275862068965H321.3793103448276V384.82758620689657Z" fill="#000000"></path><path id="r23C20" d="M337.2413793103448,384.82758620689657H353.8965517241379V401.48275862068965H337.2413793103448V384.82758620689657Z" fill="#000000"></path><path id="r23C24" d="M400.68965517241384,384.82758620689657H417.3448275862069V401.48275862068965H400.68965517241384V384.82758620689657Z" fill="#000000"></path><path id="r23C25" d="M416.55172413793105,384.82758620689657H433.2068965517241V401.48275862068965H416.55172413793105V384.82758620689657Z" fill="#000000"></path><path id="r23C27" d="M448.2758620689655,384.82758620689657H464.9310344827586V401.48275862068965H448.2758620689655V384.82758620689657Z" fill="#000000"></path><path id="r24C8" d="M146.89655172413794,400.68965517241384H163.55172413793105V417.3448275862069H146.89655172413794V400.68965517241384Z" fill="#000000"></path><path id="r24C11" d="M194.48275862068965,400.68965517241384H211.13793103448276V417.3448275862069H194.48275862068965V400.68965517241384Z" fill="#000000"></path><path id="r24C13" d="M226.20689655172416,400.68965517241384H242.86206896551727V417.3448275862069H226.20689655172416V400.68965517241384Z" fill="#000000"></path><path id="r24C15" d="M257.9310344827586,400.68965517241384H274.5862068965517V417.3448275862069H257.9310344827586V400.68965517241384Z" fill="#000000"></path><path id="r24C17" d="M289.65517241379314,400.68965517241384H306.3103448275862V417.3448275862069H289.65517241379314V400.68965517241384Z" fill="#000000"></path><path id="r24C18" d="M305.51724137931035,400.68965517241384H322.17241379310343V417.3448275862069H305.51724137931035V400.68965517241384Z" fill="#000000"></path><path id="r24C19" d="M321.3793103448276,400.68965517241384H338.0344827586207V417.3448275862069H321.3793103448276V400.68965517241384Z" fill="#000000"></path><path id="r24C20" d="M337.2413793103448,400.68965517241384H353.8965517241379V417.3448275862069H337.2413793103448V400.68965517241384Z" fill="#000000"></path><path id="r24C21" d="M353.1034482758621,400.68965517241384H369.7586206896552V417.3448275862069H353.1034482758621V400.68965517241384Z" fill="#000000"></path><path id="r24C22" d="M368.9655172413793,400.68965517241384H385.6206896551724V417.3448275862069H368.9655172413793V400.68965517241384Z" fill="#000000"></path><path id="r24C23" d="M384.82758620689657,400.68965517241384H401.48275862068965V417.3448275862069H384.82758620689657V400.68965517241384Z" fill="#000000"></path><path id="r24C24" d="M400.68965517241384,400.68965517241384H417.3448275862069V417.3448275862069H400.68965517241384V400.68965517241384Z" fill="#000000"></path><path id="r25C8" d="M146.89655172413794,416.55172413793105H163.55172413793105V433.2068965517241H146.89655172413794V416.55172413793105Z" fill="#000000"></path><path id="r25C9" d="M162.75862068965517,416.55172413793105H179.41379310344828V433.2068965517241H162.75862068965517V416.55172413793105Z" fill="#000000"></path><path id="r25C11" d="M194.48275862068965,416.55172413793105H211.13793103448276V433.2068965517241H194.48275862068965V416.55172413793105Z" fill="#000000"></path><path id="r25C12" d="M210.34482758620692,416.55172413793105H227.00000000000003V433.2068965517241H210.34482758620692V416.55172413793105Z" fill="#000000"></path><path id="r25C14" d="M242.0689655172414,416.55172413793105H258.7241379310345V433.2068965517241H242.0689655172414V416.55172413793105Z" fill="#000000"></path><path id="r25C15" d="M257.9310344827586,416.55172413793105H274.5862068965517V433.2068965517241H257.9310344827586V416.55172413793105Z" fill="#000000"></path><path id="r25C16" d="M273.7931034482759,416.55172413793105H290.44827586206895V433.2068965517241H273.7931034482759V416.55172413793105Z" fill="#000000"></path><path id="r25C17" d="M289.65517241379314,416.55172413793105H306.3103448275862V433.2068965517241H289.65517241379314V416.55172413793105Z" fill="#000000"></path><path id="r25C18" d="M305.51724137931035,416.55172413793105H322.17241379310343V433.2068965517241H305.51724137931035V416.55172413793105Z" fill="#000000"></path><path id="r25C19" d="M321.3793103448276,416.55172413793105H338.0344827586207V433.2068965517241H321.3793103448276V416.55172413793105Z" fill="#000000"></path><path id="r25C21" d="M353.1034482758621,416.55172413793105H369.7586206896552V433.2068965517241H353.1034482758621V416.55172413793105Z" fill="#000000"></path><path id="r25C23" d="M384.82758620689657,416.55172413793105H401.48275862068965V433.2068965517241H384.82758620689657V416.55172413793105Z" fill="#000000"></path><path id="r25C25" d="M416.55172413793105,416.55172413793105H433.2068965517241V433.2068965517241H416.55172413793105V416.55172413793105Z" fill="#000000"></path><path id="r25C26" d="M432.4137931034483,416.55172413793105H449.0689655172414V433.2068965517241H432.4137931034483V416.55172413793105Z" fill="#000000"></path><path id="r25C27" d="M448.2758620689655,416.55172413793105H464.9310344827586V433.2068965517241H448.2758620689655V416.55172413793105Z" fill="#000000"></path><path id="r26C9" d="M162.75862068965517,432.4137931034483H179.41379310344828V449.0689655172414H162.75862068965517V432.4137931034483Z" fill="#000000"></path><path id="r26C11" d="M194.48275862068965,432.4137931034483H211.13793103448276V449.0689655172414H194.48275862068965V432.4137931034483Z" fill="#000000"></path><path id="r26C16" d="M273.7931034482759,432.4137931034483H290.44827586206895V449.0689655172414H273.7931034482759V432.4137931034483Z" fill="#000000"></path><path id="r26C18" d="M305.51724137931035,432.4137931034483H322.17241379310343V449.0689655172414H305.51724137931035V432.4137931034483Z" fill="#000000"></path><path id="r26C21" d="M353.1034482758621,432.4137931034483H369.7586206896552V449.0689655172414H353.1034482758621V432.4137931034483Z" fill="#000000"></path><path id="r26C24" d="M400.68965517241384,432.4137931034483H417.3448275862069V449.0689655172414H400.68965517241384V432.4137931034483Z" fill="#000000"></path><path id="r26C26" d="M432.4137931034483,432.4137931034483H449.0689655172414V449.0689655172414H432.4137931034483V432.4137931034483Z" fill="#000000"></path><path id="r26C27" d="M448.2758620689655,432.4137931034483H464.9310344827586V449.0689655172414H448.2758620689655V432.4137931034483Z" fill="#000000"></path><path id="r26C28" d="M464.1379310344828,432.4137931034483H480.7931034482759V449.0689655172414H464.1379310344828V432.4137931034483Z" fill="#000000"></path><path id="r27C10" d="M178.6206896551724,448.2758620689655H195.27586206896552V464.9310344827586H178.6206896551724V448.2758620689655Z" fill="#000000"></path><path id="r27C11" d="M194.48275862068965,448.2758620689655H211.13793103448276V464.9310344827586H194.48275862068965V448.2758620689655Z" fill="#000000"></path><path id="r27C12" d="M210.34482758620692,448.2758620689655H227.00000000000003V464.9310344827586H210.34482758620692V448.2758620689655Z" fill="#000000"></path><path id="r27C13" d="M226.20689655172416,448.2758620689655H242.86206896551727V464.9310344827586H226.20689655172416V448.2758620689655Z" fill="#000000"></path><path id="r27C16" d="M273.7931034482759,448.2758620689655H290.44827586206895V464.9310344827586H273.7931034482759V448.2758620689655Z" fill="#000000"></path><path id="r27C17" d="M289.65517241379314,448.2758620689655H306.3103448275862V464.9310344827586H289.65517241379314V448.2758620689655Z" fill="#000000"></path><path id="r27C24" d="M400.68965517241384,448.2758620689655H417.3448275862069V464.9310344827586H400.68965517241384V448.2758620689655Z" fill="#000000"></path><path id="r27C25" d="M416.55172413793105,448.2758620689655H433.2068965517241V464.9310344827586H416.55172413793105V448.2758620689655Z" fill="#000000"></path><path id="r27C26" d="M432.4137931034483,448.2758620689655H449.0689655172414V464.9310344827586H432.4137931034483V448.2758620689655Z" fill="#000000"></path><path id="r27C28" d="M464.1379310344828,448.2758620689655H480.7931034482759V464.9310344827586H464.1379310344828V448.2758620689655Z" fill="#000000"></path><path id="r28C9" d="M162.75862068965517,464.1379310344828H179.41379310344828V480.7931034482759H162.75862068965517V464.1379310344828Z" fill="#000000"></path><path id="r28C12" d="M210.34482758620692,464.1379310344828H227.00000000000003V480.7931034482759H210.34482758620692V464.1379310344828Z" fill="#000000"></path><path id="r28C14" d="M242.0689655172414,464.1379310344828H258.7241379310345V480.7931034482759H242.0689655172414V464.1379310344828Z" fill="#000000"></path><path id="r28C15" d="M257.9310344827586,464.1379310344828H274.5862068965517V480.7931034482759H257.9310344827586V464.1379310344828Z" fill="#000000"></path><path id="r28C18" d="M305.51724137931035,464.1379310344828H322.17241379310343V480.7931034482759H305.51724137931035V464.1379310344828Z" fill="#000000"></path><path id="r28C19" d="M321.3793103448276,464.1379310344828H338.0344827586207V480.7931034482759H321.3793103448276V464.1379310344828Z" fill="#000000"></path><path id="r28C20" d="M337.2413793103448,464.1379310344828H353.8965517241379V480.7931034482759H337.2413793103448V464.1379310344828Z" fill="#000000"></path><path id="r28C23" d="M384.82758620689657,464.1379310344828H401.48275862068965V480.7931034482759H384.82758620689657V464.1379310344828Z" fill="#000000"></path><path id="r28C24" d="M400.68965517241384,464.1379310344828H417.3448275862069V480.7931034482759H400.68965517241384V464.1379310344828Z" fill="#000000"></path><path id="r28C25" d="M416.55172413793105,464.1379310344828H433.2068965517241V480.7931034482759H416.55172413793105V464.1379310344828Z" fill="#000000"></path><path id="outerEye" d="M20,20v111.0344827586207h111.0344827586207V20H20z M115.17241379310346,115.17241379310346H35.86206896551724V35.86206896551724H115.17241379310346V131.0344827586207z" fill="#000000"></path><path id="outerEye" d="M20,368.9655172413793v111.0344827586207h111.0344827586207V368.9655172413793H20z M115.17241379310346,464.13793103448273H35.86206896551724V384.82758620689657H115.17241379310346V480z" fill="#000000"></path><path id="outerEye" d="M368.9655172413793,20v111.0344827586207h111.0344827586207V20H368.9655172413793z M464.13793103448273,115.17241379310346H384.82758620689657V35.86206896551724H464.1379310344828V131.0344827586207z" fill="#000000"></path><path id="innerEye" d="M51.724137931034484,51.724137931034484v47.58620689655173h47.58620689655173V51.724137931034484H51.724137931034484z" fill="#000000"></path><path id="innerEye" d="M400.68965517241384,51.724137931034484v47.58620689655173h47.58620689655173V51.724137931034484H400.68965517241384z" fill="#000000"></path><path id="innerEye" d="M51.724137931034484,400.68965517241384v47.58620689655173h47.58620689655173V400.68965517241384H51.724137931034484z" fill="#000000"></path></svg>